<?xml version="1.0" encoding="UTF-8"?>
<svg id="Layer_2" data-name="Layer 2" xmlns="http://www.w3.org/2000/svg" viewBox="0 0 789.46 805.73">
  <defs>
    <style>
      .cls-1 {
        fill: #fff;
      }

      .cls-1, .cls-2 {
        stroke-width: 0px;
      }

      .cls-2 {
        fill: #231f20;
      }
    </style>
  </defs>
  <g id="Layer_1-2" data-name="Layer 1">
    <g>
      <path class="cls-2" d="M651.89,297.21v163.53c0,34.26,3.67,35.48,37.11,39.14v11.43h-109.29v-11.43c33.85-4.07,37.11-4.88,37.11-39.14v-81.56h-139.47v384.29l.07,34.93c-31.19,6.1-59.48,8.4-91.18,6.88-37.35-1.23-74.95-8.32-110.46-19.76-5.66-2-12.89-4.61-18.55-6.63-4.44-1.83-11.91-4.92-16.37-6.78l-1.82-.75-1.78-.84c-2.03-1-8.5-3.98-10.67-5.04-2.14-1.07-5.04-2.31-7.06-3.46-3.02-1.58-14.7-7.78-17.27-9.35-1.95-1.2-8.04-4.78-10.11-6.05-6.51-3.72-13.38-8.73-19.73-12.83-31.87-22.33-60.92-49.71-85.1-80.15-3.31-4.4-11.03-14.31-13.91-18.8-2.02-2.95-5.73-8.33-7.7-11.25-4.09-6.77-9.32-14.7-13.02-21.69-11.39-20-21.09-41.96-28.8-63.61C-23.24,401.66-1.45,236.51,96.46,129.89,19.89,219.45-3.37,352.99,19.4,468.56c2.81,15.42,7.48,32,12.27,46.98,2.83,7.81,5.85,16.83,9.2,24.44,7.76,19.28,17.91,38.58,28.83,56.26,1.19,2.09,4.71,7.24,6.1,9.34,1.47,2.18,4.73,7.2,6.25,9.22,26.41,37.04,59.72,69.81,97.53,95.12,3.65,2.63,8.55,5.65,12.39,7.99,7.07,4.55,14.98,8.79,22.36,12.84,3.71,2.1,14.36,7.06,18.13,8.98,3.55,1.55,8.36,3.58,11.82,5.09l3.38,1.45,1.68.72c4.32,1.62,11.19,4.16,15.49,5.78,2.83,1.08,4.34,1.42,6.97,2.3l6.99,2.22,3.5,1.11c43.19,12.66,88.94,17.55,133.8,14.25,8.14-.6,16.93-1.53,25.78-2.74v-472.7c0-34.26-3.66-36.3-36.7-39.56v-11.42h108.89v11.42c-32.63,2.86-36.71,5.71-36.71,39.56v64.84h139.47v-64.84c0-33.85-4.48-36.7-37.11-39.56v-11.42h109.29v11.42c-33.84,3.26-37.11,5.3-37.11,39.56Z"/>
      <path class="cls-1" d="M481.16,797.35c169.84-38.85,289.86-204.05,295.53-378.27,1.34-44.9-5.03-90.18-19.1-132.79-1.91-5.13-3.69-10.76-5.61-15.85,0-.02-4.23-10.37-4.23-10.37-1.23-3.13-2.99-7.31-4.43-10.28-.93-1.95-5.11-10.95-5.92-12.68-3.04-5.61-6.09-11.74-9.19-17.29-3.33-5.54-7.99-13.85-11.59-19.12-2.16-3.21-7.05-10.93-9.37-13.9-1.63-2.24-4.94-6.79-6.58-9.03-2.18-3.24-7.95-9.99-10.38-13.14-2.01-2.65-5.01-6-7.24-8.49-9.62-11.08-20.39-21.97-31.24-31.8-24.73-22.31-52.52-41.54-82.26-56.55l-9.94-4.94-1.24-.62-1.27-.56c-2.98-1.34-4.98-2.14-7.63-3.33-2.3-.93-7.69-3.49-10.21-4.33C404.28.11,245.52,35.21,139.67,133.65c16.59,57,80.11,263.43,96.25,318.93,22.43-64.84,46.89-135.8,67.69-202.68h13.05c22.84,69.32,45.68,133.76,69.33,203.08,16.92-53.58,39.82-125.08,49.01-161v63.2c-15.39,48.39-35.13,111.44-50.23,160.61h-13.87c-21.21-63.62-48.53-142.32-69.74-202.68-23.65,70.14-47.71,139.87-68.91,202.68h-13.46c-20.39-70.14-43.64-146.41-65.66-217.77-.72-2.24-27.1-87.17-41.94-134.85l-.63-2.02-1.37-4.4-1.69-5.44-.4-1.28-5.75-18.52-1.59-5.11c21.48-23.55,37.65-38.5,63.92-56.42C238.9,18.39,331.85-6.34,422.69,1.39l11.78,1.04c5.34.59,12.19,1.61,17.57,2.35,6.59.88,16.69,3.01,23.26,4.22,5.19,1.14,14.83,3.61,20.09,4.86,6.49,1.93,13.37,3.9,19.79,5.92,4.04,1.34,12.88,4.58,16.7,5.87,3.27,1.33,12.9,5.17,16.39,6.64,4.95,2.04,11.17,5.1,16.08,7.35,6.04,2.72,15.03,7.75,20.94,10.79,28.95,16.38,56.19,36.13,80.26,59.07,11.17,10.59,22.23,22.31,32.06,34.21,2.35,2.65,5.29,6.33,7.38,9.1,4.22,5.39,10.17,13.23,13.9,18.85,5.3,7.31,11.11,16.89,15.87,24.58,1.82,3.22,6.69,11.97,8.57,15.31,2.68,4.96,5.27,10.64,7.86,15.68,23.39,49.06,36.43,103.27,38.05,157.54,6.17,190.17-121.65,374.35-308.08,412.58Z"/>
    </g>
  </g>
</svg>