<?xml version="1.0" encoding="UTF-8"?>
<svg xmlns="http://www.w3.org/2000/svg" xmlns:xlink="http://www.w3.org/1999/xlink" viewBox="0 0 681.65 312.41">
  <defs>
    <style>
      .cls-1 {
        fill: url(#Degradado_sin_nombre_32-4);
      }

      .cls-1, .cls-2, .cls-3, .cls-4, .cls-5, .cls-6, .cls-7, .cls-8, .cls-9, .cls-10, .cls-11, .cls-12, .cls-13, .cls-14, .cls-15 {
        stroke-width: 0px;
      }

      .cls-1, .cls-6, .cls-9, .cls-15 {
        mix-blend-mode: soft-light;
      }

      .cls-2 {
        fill: url(#Degradado_sin_nombre_8-2);
      }

      .cls-3 {
        fill: url(#Degradado_sin_nombre_8-7);
      }

      .cls-4 {
        fill: url(#Degradado_sin_nombre_8);
      }

      .cls-5 {
        fill: url(#Degradado_sin_nombre_8-8);
      }

      .cls-6 {
        fill: url(#Degradado_sin_nombre_32);
      }

      .cls-7 {
        fill: url(#Degradado_sin_nombre_8-4);
      }

      .cls-8 {
        fill: url(#Degradado_sin_nombre_8-9);
      }

      .cls-16 {
        isolation: isolate;
      }

      .cls-9 {
        fill: url(#Degradado_sin_nombre_32-2);
      }

      .cls-10 {
        fill: url(#Degradado_sin_nombre_8-3);
      }

      .cls-11 {
        fill: url(#Degradado_sin_nombre_8-5);
      }

      .cls-12 {
        fill: url(#Degradado_sin_nombre_8-10);
      }

      .cls-17 {
        fill: #fff;
        font-family: MicrosoftSansSerif, 'Microsoft Sans Serif';
        font-size: 49.85px;
        letter-spacing: .08em;
      }

      .cls-18 {
        fill: #7b86ff;
        font-family: ArialRoundedMTBold, 'Arial Rounded MT Bold';
        font-size: 21px;
        letter-spacing: .25em;
      }

      .cls-13 {
        fill: url(#Degradado_sin_nombre_8-6);
      }

      .cls-14 {
        fill: #02023b;
      }

      .cls-15 {
        fill: url(#Degradado_sin_nombre_32-3);
      }
    </style>
    <linearGradient id="Degradado_sin_nombre_8" data-name="Degradado sin nombre 8" x1="206.54" y1="96.48" x2="206.54" y2="96.46" gradientUnits="userSpaceOnUse">
      <stop offset="0" stop-color="#f84fff"/>
      <stop offset="1" stop-color="#7b86ff"/>
    </linearGradient>
    <linearGradient id="Degradado_sin_nombre_8-2" data-name="Degradado sin nombre 8" x1="244.8" x2="244.8" xlink:href="#Degradado_sin_nombre_8"/>
    <linearGradient id="Degradado_sin_nombre_8-3" data-name="Degradado sin nombre 8" x1="205.5" y1="177.76" x2="205.5" y2="-8.03" xlink:href="#Degradado_sin_nombre_8"/>
    <linearGradient id="Degradado_sin_nombre_8-4" data-name="Degradado sin nombre 8" x1="226.58" y1="134.42" x2="225.73" y2="76.95" xlink:href="#Degradado_sin_nombre_8"/>
    <linearGradient id="Degradado_sin_nombre_8-5" data-name="Degradado sin nombre 8" x1="302.44" y1="176.11" x2="302.44" y2="93.41" xlink:href="#Degradado_sin_nombre_8"/>
    <linearGradient id="Degradado_sin_nombre_8-6" data-name="Degradado sin nombre 8" x1="476.14" y1="177.76" x2="476.14" y2="-8.03" xlink:href="#Degradado_sin_nombre_8"/>
    <linearGradient id="Degradado_sin_nombre_8-7" data-name="Degradado sin nombre 8" x1="456.83" y1="131.04" x2="455.99" y2="73.56" xlink:href="#Degradado_sin_nombre_8"/>
    <linearGradient id="Degradado_sin_nombre_8-8" data-name="Degradado sin nombre 8" x1="379.21" y1="176.11" x2="379.21" y2="93.41" xlink:href="#Degradado_sin_nombre_8"/>
    <linearGradient id="Degradado_sin_nombre_8-9" data-name="Degradado sin nombre 8" x1="379.78" y1="132.17" x2="378.94" y2="74.7" xlink:href="#Degradado_sin_nombre_8"/>
    <linearGradient id="Degradado_sin_nombre_8-10" data-name="Degradado sin nombre 8" x1="303.04" y1="133.3" x2="302.19" y2="75.83" xlink:href="#Degradado_sin_nombre_8"/>
    <linearGradient id="Degradado_sin_nombre_32" data-name="Degradado sin nombre 32" x1="225.67" y1="175.83" x2="225.67" y2="156.65" gradientUnits="userSpaceOnUse">
      <stop offset="0" stop-color="#fff" stop-opacity="0"/>
      <stop offset="1" stop-color="#fff"/>
    </linearGradient>
    <linearGradient id="Degradado_sin_nombre_32-2" data-name="Degradado sin nombre 32" x1="302.44" y1="175.83" x2="302.44" y2="156.65" xlink:href="#Degradado_sin_nombre_32"/>
    <linearGradient id="Degradado_sin_nombre_32-3" data-name="Degradado sin nombre 32" x1="379.21" y1="175.83" x2="379.21" y2="156.65" xlink:href="#Degradado_sin_nombre_32"/>
    <linearGradient id="Degradado_sin_nombre_32-4" data-name="Degradado sin nombre 32" x1="455.98" y1="175.83" x2="455.98" y2="156.65" xlink:href="#Degradado_sin_nombre_32"/>
  </defs>
  <g class="cls-16">
    <g id="Layer_2" data-name="Layer 2">
      <g id="TEXTS">
        <g>
          <rect class="cls-14" x="0" y="0" width="681.65" height="312.41" rx="156.2" ry="156.2"/>
          <g>
            <text class="cls-17" transform="translate(159.42 230.37)"><tspan x="0" y="0" xml:space="preserve"> TEAM WORK</tspan></text>
            <text class="cls-18" transform="translate(282.7 265)"><tspan x="0" y="0">STUDIO</tspan></text>
            <g>
              <g>
                <polygon class="cls-4" points="206.55 96.48 206.54 96.48 206.54 96.47 206.55 96.48"/>
                <path class="cls-2" d="M244.81,96.47h0s0,.01,0,.01c0,0,0-.01,0-.01Z"/>
                <path class="cls-10" d="M257.94,122.46v45.35c0,3.86-3.13,6.99-6.99,6.99h-50.56c-3.86,0-6.98-3.13-6.98-6.99v-45.35c0-1.69.13-3.35.38-4.96-24.09-11.83-40.72-36.61-40.72-65.21,0-4.91,4.17-8.85,9.16-8.48,4.43.34,7.83,4.19,7.84,8.63.05,18.68,9.36,35.21,23.56,45.26,3.62,2.55,8.47,2.29,11.93-.47.32-.26.65-.51.98-.75.29,8.64,12.75,13.18,12.75,13.18l6.38-6.38,6.38,6.38s12.47-4.54,12.76-13.18c7.96,5.87,13.13,15.32,13.13,25.98Z"/>
                <circle class="cls-7" cx="225.67" cy="72.98" r="25.57"/>
                <path class="cls-11" d="M334.71,142.46v25.35c0,3.86-3.12,6.99-6.98,6.99h-50.56c-3.86,0-6.99-3.13-6.99-6.99v-25.35c0-10.66,5.17-20.11,13.13-25.98,3.27,2.68,7.12,4.68,11.33,5.79-.04.33-.06.66-.06,1,0,3.55,2.15,6.6,5.22,7.91l-3.1,31.52,2.54,2.54,3.96,3.96,6.5-6.5-3.1-31.52c3.07-1.31,5.22-4.36,5.22-7.91,0-.48-.04-.96-.12-1.42,3.64-1.17,6.99-3,9.88-5.37,7.97,5.87,13.13,15.32,13.13,25.98Z"/>
                <path class="cls-13" d="M487.87,117.5c.25,1.61.38,3.27.38,4.96v45.35c0,3.86-3.13,6.99-6.99,6.99h-50.56c-3.86,0-6.99-3.13-6.99-6.99v-45.35c0-8.91,3.61-16.98,9.45-22.82,1.14-1.14,2.37-2.2,3.68-3.17,3.07,2.5,6.63,4.41,10.52,5.56h0c0,3.56,2.15,6.62,5.22,7.93l-3.1,31.52,6.5,6.5,6.5-6.5-3.1-31.52c3.07-1.31,5.22-4.37,5.22-7.92h0c3.89-1.15,7.45-3.06,10.51-5.56.33.23.66.48.98.74,3.47,2.77,8.31,3.03,11.93.48,14.2-10.05,23.51-26.58,23.56-45.26.02-4.44,3.42-8.29,7.85-8.63,4.99-.37,9.15,3.57,9.15,8.48,0,28.6-16.62,53.38-40.71,65.21Z"/>
                <circle class="cls-3" cx="455.98" cy="72.98" r="25.57"/>
                <path class="cls-5" d="M379.22,151.75c-2.09,0-3.78-1.69-3.78-3.77s1.69-3.78,3.78-3.78,3.78,1.69,3.78,3.78-1.7,3.77-3.78,3.77ZM379.22,163.99c-2.09,0-3.78-1.69-3.78-3.77s1.69-3.78,3.78-3.78,3.78,1.69,3.78,3.78-1.7,3.77-3.78,3.77ZM398.35,116.48c-2.77,2.26-5.95,4.04-9.41,5.21l-9.72,17.87-9.72-17.87c-3.46-1.16-6.65-2.94-9.42-5.21-7.96,5.87-13.13,15.32-13.13,25.98v25.35c0,3.86,3.13,6.99,6.99,6.99h50.56c3.86,0,6.98-3.13,6.98-6.99v-25.35c0-10.66-5.16-20.11-13.13-25.98Z"/>
                <circle class="cls-8" cx="379.21" cy="92.98" r="25.57"/>
              </g>
              <circle class="cls-12" cx="302.45" cy="92.98" r="25.57"/>
              <path class="cls-6" d="M193.41,144.2c17.11,6.89,39.17,12.55,64.53,16.46v7.15c0,3.86-3.13,6.99-6.99,6.99h-50.56c-3.86,0-6.98-3.13-6.98-6.99v-23.61Z"/>
              <path class="cls-9" d="M334.71,166.65v1.16c0,3.86-3.12,6.99-6.98,6.99h-50.56c-3.86,0-6.99-3.13-6.99-6.99v-5.43c9.33,1.19,19.04,2.15,29.06,2.86l3.96,3.96,3.49-3.49c9.12.53,18.48.85,28.02.94Z"/>
              <path class="cls-15" d="M346.95,166.66c22.78-.22,44.53-1.71,64.53-4.25v5.4c0,3.86-3.12,6.99-6.98,6.99h-50.56c-3.86,0-6.99-3.13-6.99-6.99v-1.15Z"/>
              <path class="cls-1" d="M423.71,160.7c25.34-3.89,47.4-9.52,64.54-16.39v23.5c0,3.86-3.13,6.99-6.99,6.99h-50.56c-3.86,0-6.99-3.13-6.99-6.99v-7.11Z"/>
            </g>
          </g>
        </g>
      </g>
    </g>
  </g>
</svg>